<mxfile host="app.diagrams.net" modified="2023-04-15T11:26:57.842Z" agent="Mozilla/5.0 (Windows NT 10.0; Win64; x64) AppleWebKit/537.36 (KHTML, like Gecko) Chrome/112.0.0.0 Safari/537.36" etag="IasOr7wzlhsetbbNnuN3" version="21.1.8" type="github">
  <diagram id="C5RBs43oDa-KdzZeNtuy" name="Page-1">
    <mxGraphModel dx="1539" dy="542" grid="1" gridSize="10" guides="1" tooltips="1" connect="1" arrows="1" fold="1" page="1" pageScale="1" pageWidth="827" pageHeight="1169" math="0" shadow="0">
      <root>
        <mxCell id="WIyWlLk6GJQsqaUBKTNV-0" />
        <mxCell id="WIyWlLk6GJQsqaUBKTNV-1" parent="WIyWlLk6GJQsqaUBKTNV-0" />
        <mxCell id="xAVLKOwbk4JyC8eKmy-N-3" style="edgeStyle=orthogonalEdgeStyle;rounded=0;orthogonalLoop=1;jettySize=auto;html=1;" edge="1" parent="WIyWlLk6GJQsqaUBKTNV-1" source="xAVLKOwbk4JyC8eKmy-N-0" target="xAVLKOwbk4JyC8eKmy-N-2">
          <mxGeometry relative="1" as="geometry" />
        </mxCell>
        <mxCell id="xAVLKOwbk4JyC8eKmy-N-4" style="edgeStyle=orthogonalEdgeStyle;rounded=0;orthogonalLoop=1;jettySize=auto;html=1;entryX=0;entryY=0.5;entryDx=0;entryDy=0;" edge="1" parent="WIyWlLk6GJQsqaUBKTNV-1" source="xAVLKOwbk4JyC8eKmy-N-0" target="xAVLKOwbk4JyC8eKmy-N-1">
          <mxGeometry relative="1" as="geometry" />
        </mxCell>
        <mxCell id="xAVLKOwbk4JyC8eKmy-N-6" style="edgeStyle=orthogonalEdgeStyle;rounded=0;orthogonalLoop=1;jettySize=auto;html=1;entryX=0;entryY=0.5;entryDx=0;entryDy=0;" edge="1" parent="WIyWlLk6GJQsqaUBKTNV-1" source="xAVLKOwbk4JyC8eKmy-N-0" target="xAVLKOwbk4JyC8eKmy-N-5">
          <mxGeometry relative="1" as="geometry" />
        </mxCell>
        <mxCell id="xAVLKOwbk4JyC8eKmy-N-0" value="Агрокультура&lt;br&gt;&lt;br&gt;10 ЧЕЛ&lt;br&gt;&lt;br&gt;Разблокирует указ Послать на землю" style="rounded=1;whiteSpace=wrap;html=1;" vertex="1" parent="WIyWlLk6GJQsqaUBKTNV-1">
          <mxGeometry x="30" y="450" width="120" height="110" as="geometry" />
        </mxCell>
        <mxCell id="xAVLKOwbk4JyC8eKmy-N-8" style="edgeStyle=orthogonalEdgeStyle;rounded=0;orthogonalLoop=1;jettySize=auto;html=1;" edge="1" parent="WIyWlLk6GJQsqaUBKTNV-1" source="xAVLKOwbk4JyC8eKmy-N-1" target="xAVLKOwbk4JyC8eKmy-N-7">
          <mxGeometry relative="1" as="geometry" />
        </mxCell>
        <mxCell id="xAVLKOwbk4JyC8eKmy-N-1" value="Threshing&lt;br&gt;&lt;br&gt;10 ЧЕЛ 10 ЗЕРН&lt;br&gt;&lt;br&gt;Удваивает скорость прозиводства всех ферм производящих ЗЕРНО" style="rounded=1;whiteSpace=wrap;html=1;" vertex="1" parent="WIyWlLk6GJQsqaUBKTNV-1">
          <mxGeometry x="190" y="290" width="120" height="120" as="geometry" />
        </mxCell>
        <mxCell id="xAVLKOwbk4JyC8eKmy-N-20" style="edgeStyle=orthogonalEdgeStyle;rounded=0;orthogonalLoop=1;jettySize=auto;html=1;entryX=0;entryY=0.5;entryDx=0;entryDy=0;" edge="1" parent="WIyWlLk6GJQsqaUBKTNV-1" source="xAVLKOwbk4JyC8eKmy-N-2" target="xAVLKOwbk4JyC8eKmy-N-9">
          <mxGeometry relative="1" as="geometry" />
        </mxCell>
        <mxCell id="xAVLKOwbk4JyC8eKmy-N-21" style="edgeStyle=orthogonalEdgeStyle;rounded=0;orthogonalLoop=1;jettySize=auto;html=1;" edge="1" parent="WIyWlLk6GJQsqaUBKTNV-1" source="xAVLKOwbk4JyC8eKmy-N-2" target="xAVLKOwbk4JyC8eKmy-N-11">
          <mxGeometry relative="1" as="geometry" />
        </mxCell>
        <mxCell id="xAVLKOwbk4JyC8eKmy-N-22" style="edgeStyle=orthogonalEdgeStyle;rounded=0;orthogonalLoop=1;jettySize=auto;html=1;entryX=0;entryY=0.5;entryDx=0;entryDy=0;" edge="1" parent="WIyWlLk6GJQsqaUBKTNV-1" source="xAVLKOwbk4JyC8eKmy-N-2" target="xAVLKOwbk4JyC8eKmy-N-17">
          <mxGeometry relative="1" as="geometry" />
        </mxCell>
        <mxCell id="xAVLKOwbk4JyC8eKmy-N-23" style="edgeStyle=orthogonalEdgeStyle;rounded=0;orthogonalLoop=1;jettySize=auto;html=1;entryX=0;entryY=0.5;entryDx=0;entryDy=0;" edge="1" parent="WIyWlLk6GJQsqaUBKTNV-1" source="xAVLKOwbk4JyC8eKmy-N-2" target="xAVLKOwbk4JyC8eKmy-N-18">
          <mxGeometry relative="1" as="geometry" />
        </mxCell>
        <mxCell id="xAVLKOwbk4JyC8eKmy-N-24" style="edgeStyle=orthogonalEdgeStyle;rounded=0;orthogonalLoop=1;jettySize=auto;html=1;entryX=0;entryY=0.5;entryDx=0;entryDy=0;" edge="1" parent="WIyWlLk6GJQsqaUBKTNV-1" source="xAVLKOwbk4JyC8eKmy-N-2" target="xAVLKOwbk4JyC8eKmy-N-19">
          <mxGeometry relative="1" as="geometry" />
        </mxCell>
        <mxCell id="xAVLKOwbk4JyC8eKmy-N-2" value="Религия&lt;br&gt;&lt;br&gt;15 ЧЕЛ 10 ЗЕРН&lt;br&gt;&lt;br&gt;Разблокирует указ Построить церковь&amp;nbsp;" style="rounded=1;whiteSpace=wrap;html=1;" vertex="1" parent="WIyWlLk6GJQsqaUBKTNV-1">
          <mxGeometry x="354" y="450" width="120" height="110" as="geometry" />
        </mxCell>
        <mxCell id="xAVLKOwbk4JyC8eKmy-N-41" style="edgeStyle=orthogonalEdgeStyle;rounded=0;orthogonalLoop=1;jettySize=auto;html=1;" edge="1" parent="WIyWlLk6GJQsqaUBKTNV-1" source="xAVLKOwbk4JyC8eKmy-N-5" target="xAVLKOwbk4JyC8eKmy-N-33">
          <mxGeometry relative="1" as="geometry" />
        </mxCell>
        <mxCell id="xAVLKOwbk4JyC8eKmy-N-42" style="edgeStyle=orthogonalEdgeStyle;rounded=0;orthogonalLoop=1;jettySize=auto;html=1;entryX=0;entryY=0.5;entryDx=0;entryDy=0;" edge="1" parent="WIyWlLk6GJQsqaUBKTNV-1" source="xAVLKOwbk4JyC8eKmy-N-5" target="xAVLKOwbk4JyC8eKmy-N-34">
          <mxGeometry relative="1" as="geometry" />
        </mxCell>
        <mxCell id="xAVLKOwbk4JyC8eKmy-N-43" style="edgeStyle=orthogonalEdgeStyle;rounded=0;orthogonalLoop=1;jettySize=auto;html=1;entryX=0;entryY=0.5;entryDx=0;entryDy=0;" edge="1" parent="WIyWlLk6GJQsqaUBKTNV-1" source="xAVLKOwbk4JyC8eKmy-N-5" target="xAVLKOwbk4JyC8eKmy-N-35">
          <mxGeometry relative="1" as="geometry" />
        </mxCell>
        <mxCell id="xAVLKOwbk4JyC8eKmy-N-45" style="edgeStyle=orthogonalEdgeStyle;rounded=0;orthogonalLoop=1;jettySize=auto;html=1;entryX=0;entryY=0.5;entryDx=0;entryDy=0;" edge="1" parent="WIyWlLk6GJQsqaUBKTNV-1" source="xAVLKOwbk4JyC8eKmy-N-5" target="xAVLKOwbk4JyC8eKmy-N-36">
          <mxGeometry relative="1" as="geometry" />
        </mxCell>
        <mxCell id="xAVLKOwbk4JyC8eKmy-N-46" style="edgeStyle=orthogonalEdgeStyle;rounded=0;orthogonalLoop=1;jettySize=auto;html=1;entryX=0;entryY=0.5;entryDx=0;entryDy=0;" edge="1" parent="WIyWlLk6GJQsqaUBKTNV-1" source="xAVLKOwbk4JyC8eKmy-N-5" target="xAVLKOwbk4JyC8eKmy-N-37">
          <mxGeometry relative="1" as="geometry" />
        </mxCell>
        <mxCell id="xAVLKOwbk4JyC8eKmy-N-47" style="edgeStyle=orthogonalEdgeStyle;rounded=0;orthogonalLoop=1;jettySize=auto;html=1;entryX=0;entryY=0.5;entryDx=0;entryDy=0;" edge="1" parent="WIyWlLk6GJQsqaUBKTNV-1" source="xAVLKOwbk4JyC8eKmy-N-5" target="xAVLKOwbk4JyC8eKmy-N-39">
          <mxGeometry relative="1" as="geometry" />
        </mxCell>
        <mxCell id="xAVLKOwbk4JyC8eKmy-N-48" style="edgeStyle=orthogonalEdgeStyle;rounded=0;orthogonalLoop=1;jettySize=auto;html=1;entryX=0;entryY=0.5;entryDx=0;entryDy=0;" edge="1" parent="WIyWlLk6GJQsqaUBKTNV-1" source="xAVLKOwbk4JyC8eKmy-N-5" target="xAVLKOwbk4JyC8eKmy-N-40">
          <mxGeometry relative="1" as="geometry" />
        </mxCell>
        <mxCell id="xAVLKOwbk4JyC8eKmy-N-50" style="edgeStyle=orthogonalEdgeStyle;rounded=0;orthogonalLoop=1;jettySize=auto;html=1;entryX=0;entryY=0.5;entryDx=0;entryDy=0;" edge="1" parent="WIyWlLk6GJQsqaUBKTNV-1" source="xAVLKOwbk4JyC8eKmy-N-5" target="xAVLKOwbk4JyC8eKmy-N-49">
          <mxGeometry relative="1" as="geometry" />
        </mxCell>
        <mxCell id="xAVLKOwbk4JyC8eKmy-N-5" value="Меркантилизм&lt;br&gt;&lt;br&gt;10 ЧЕЛ 20 ЗЕРН&lt;br&gt;&lt;br&gt;Разблокирует указ Торговать&amp;nbsp;" style="rounded=1;whiteSpace=wrap;html=1;" vertex="1" parent="WIyWlLk6GJQsqaUBKTNV-1">
          <mxGeometry x="210" y="880" width="120" height="110" as="geometry" />
        </mxCell>
        <mxCell id="xAVLKOwbk4JyC8eKmy-N-7" value="Pottery&lt;br&gt;&lt;br&gt;10 ЧЕЛ 20 ЗЕРН&lt;br&gt;&lt;br&gt;Увеличивает максимальную емкость зерена (+40)" style="rounded=1;whiteSpace=wrap;html=1;" vertex="1" parent="WIyWlLk6GJQsqaUBKTNV-1">
          <mxGeometry x="350" y="290" width="120" height="120" as="geometry" />
        </mxCell>
        <mxCell id="xAVLKOwbk4JyC8eKmy-N-9" value="Моноатеизм&lt;br&gt;&lt;br&gt;1 ЧЕЛ 20 ВЕР&lt;br&gt;&lt;br&gt;Скорость роста веры +1,0 в сек" style="rounded=1;whiteSpace=wrap;html=1;" vertex="1" parent="WIyWlLk6GJQsqaUBKTNV-1">
          <mxGeometry x="540" y="200" width="120" height="110" as="geometry" />
        </mxCell>
        <mxCell id="xAVLKOwbk4JyC8eKmy-N-11" value="Commandments&lt;br&gt;&lt;br&gt;10 ЧЕЛ 25 ВЕР&lt;br&gt;&lt;br&gt;Увеличивает максимальную емкость веры (+50)" style="rounded=1;whiteSpace=wrap;html=1;" vertex="1" parent="WIyWlLk6GJQsqaUBKTNV-1">
          <mxGeometry x="540" y="340" width="120" height="120" as="geometry" />
        </mxCell>
        <mxCell id="xAVLKOwbk4JyC8eKmy-N-12" value="Указ Зерно&lt;br&gt;Кд&amp;nbsp; 8 сек" style="rounded=1;whiteSpace=wrap;html=1;" vertex="1" parent="WIyWlLk6GJQsqaUBKTNV-1">
          <mxGeometry x="-130" y="290" width="120" height="40" as="geometry" />
        </mxCell>
        <mxCell id="xAVLKOwbk4JyC8eKmy-N-14" value="Указ Храм&lt;br&gt;Кд&amp;nbsp; 7,5&amp;nbsp;сек" style="rounded=1;whiteSpace=wrap;html=1;" vertex="1" parent="WIyWlLk6GJQsqaUBKTNV-1">
          <mxGeometry x="-130" y="350" width="120" height="40" as="geometry" />
        </mxCell>
        <mxCell id="xAVLKOwbk4JyC8eKmy-N-15" value="Вера. Стартовый макс = 25" style="rounded=1;whiteSpace=wrap;html=1;" vertex="1" parent="WIyWlLk6GJQsqaUBKTNV-1">
          <mxGeometry x="-370" y="390" width="120" height="40" as="geometry" />
        </mxCell>
        <mxCell id="xAVLKOwbk4JyC8eKmy-N-16" value="Зерно. Стартовый макс = 20" style="rounded=1;whiteSpace=wrap;html=1;" vertex="1" parent="WIyWlLk6GJQsqaUBKTNV-1">
          <mxGeometry x="-370" y="330" width="120" height="40" as="geometry" />
        </mxCell>
        <mxCell id="xAVLKOwbk4JyC8eKmy-N-17" value="Missionaries&lt;br&gt;&lt;br&gt;2 ЧЕЛ 20 ВЕР&lt;br&gt;&lt;br&gt;Скорость роста людей +0.5 в сек" style="rounded=1;whiteSpace=wrap;html=1;" vertex="1" parent="WIyWlLk6GJQsqaUBKTNV-1">
          <mxGeometry x="540" y="480" width="120" height="120" as="geometry" />
        </mxCell>
        <mxCell id="xAVLKOwbk4JyC8eKmy-N-18" value="Human Sacrifice&lt;br&gt;&lt;br&gt;10 ВЕР&lt;br&gt;&lt;br&gt;Разблокировать указ Жертвование" style="rounded=1;whiteSpace=wrap;html=1;" vertex="1" parent="WIyWlLk6GJQsqaUBKTNV-1">
          <mxGeometry x="540" y="620" width="120" height="120" as="geometry" />
        </mxCell>
        <mxCell id="xAVLKOwbk4JyC8eKmy-N-29" style="edgeStyle=orthogonalEdgeStyle;rounded=0;orthogonalLoop=1;jettySize=auto;html=1;" edge="1" parent="WIyWlLk6GJQsqaUBKTNV-1" source="xAVLKOwbk4JyC8eKmy-N-19" target="xAVLKOwbk4JyC8eKmy-N-25">
          <mxGeometry relative="1" as="geometry" />
        </mxCell>
        <mxCell id="xAVLKOwbk4JyC8eKmy-N-19" value="Conscription&lt;br&gt;&lt;br&gt;10 ЧЕЛ 50 ЗЕРН 50 ВЕРЫ&lt;br&gt;&lt;br&gt;Разблокировать указ Набрать солдат" style="rounded=1;whiteSpace=wrap;html=1;" vertex="1" parent="WIyWlLk6GJQsqaUBKTNV-1">
          <mxGeometry x="540" y="750" width="120" height="120" as="geometry" />
        </mxCell>
        <mxCell id="xAVLKOwbk4JyC8eKmy-N-25" value="Military Training&lt;br&gt;&lt;br&gt;50 ЧЕЛ 25 АРМИИ&lt;br&gt;&lt;br&gt;Скорость роста армии +0.2 в сек" style="rounded=1;whiteSpace=wrap;html=1;" vertex="1" parent="WIyWlLk6GJQsqaUBKTNV-1">
          <mxGeometry x="760" y="750" width="120" height="120" as="geometry" />
        </mxCell>
        <mxCell id="xAVLKOwbk4JyC8eKmy-N-26" value="Указ Жертва&amp;nbsp;&lt;br&gt;Кд&amp;nbsp; 7,5&amp;nbsp;сек" style="rounded=1;whiteSpace=wrap;html=1;" vertex="1" parent="WIyWlLk6GJQsqaUBKTNV-1">
          <mxGeometry x="-130" y="410" width="120" height="40" as="geometry" />
        </mxCell>
        <mxCell id="xAVLKOwbk4JyC8eKmy-N-27" value="Указ Армия&lt;br&gt;Кд&amp;nbsp; 7,5&amp;nbsp;сек" style="rounded=1;whiteSpace=wrap;html=1;" vertex="1" parent="WIyWlLk6GJQsqaUBKTNV-1">
          <mxGeometry x="-130" y="470" width="120" height="40" as="geometry" />
        </mxCell>
        <mxCell id="xAVLKOwbk4JyC8eKmy-N-28" value="Армия. Стартовый макс = 50" style="rounded=1;whiteSpace=wrap;html=1;" vertex="1" parent="WIyWlLk6GJQsqaUBKTNV-1">
          <mxGeometry x="-370" y="450" width="120" height="40" as="geometry" />
        </mxCell>
        <mxCell id="xAVLKOwbk4JyC8eKmy-N-30" value="Указы появляются в порядке разблокировки" style="rounded=1;whiteSpace=wrap;html=1;" vertex="1" parent="WIyWlLk6GJQsqaUBKTNV-1">
          <mxGeometry x="-400" y="565" width="120" height="40" as="geometry" />
        </mxCell>
        <mxCell id="xAVLKOwbk4JyC8eKmy-N-31" value="Указ Трейдинг&lt;br&gt;Кд&amp;nbsp; 1&amp;nbsp;сек" style="rounded=1;whiteSpace=wrap;html=1;" vertex="1" parent="WIyWlLk6GJQsqaUBKTNV-1">
          <mxGeometry x="-130" y="525" width="120" height="40" as="geometry" />
        </mxCell>
        <mxCell id="xAVLKOwbk4JyC8eKmy-N-32" value="Деньги. Стартовый макс = 50" style="rounded=1;whiteSpace=wrap;html=1;" vertex="1" parent="WIyWlLk6GJQsqaUBKTNV-1">
          <mxGeometry x="-370" y="500" width="120" height="40" as="geometry" />
        </mxCell>
        <mxCell id="xAVLKOwbk4JyC8eKmy-N-58" style="edgeStyle=orthogonalEdgeStyle;rounded=0;orthogonalLoop=1;jettySize=auto;html=1;" edge="1" parent="WIyWlLk6GJQsqaUBKTNV-1" source="xAVLKOwbk4JyC8eKmy-N-33" target="xAVLKOwbk4JyC8eKmy-N-57">
          <mxGeometry relative="1" as="geometry" />
        </mxCell>
        <mxCell id="xAVLKOwbk4JyC8eKmy-N-33" value="Мегацеркви&lt;br&gt;&lt;br&gt;10 ЧЕЛ 75 ВЕР 100 ДЕНЕГ&lt;br&gt;&lt;br&gt;Увеличивает максимум веры (+125)" style="rounded=1;whiteSpace=wrap;html=1;" vertex="1" parent="WIyWlLk6GJQsqaUBKTNV-1">
          <mxGeometry x="380" y="890" width="120" height="110" as="geometry" />
        </mxCell>
        <mxCell id="xAVLKOwbk4JyC8eKmy-N-34" value="Storerooms&lt;br&gt;&lt;br&gt;20 ЧЕЛ 20 ЗЕРН 40 ДЕНЕГ&lt;br&gt;&lt;br&gt;Увеличивает максимум зерна (+140)" style="rounded=1;whiteSpace=wrap;html=1;" vertex="1" parent="WIyWlLk6GJQsqaUBKTNV-1">
          <mxGeometry x="380" y="1010" width="120" height="110" as="geometry" />
        </mxCell>
        <mxCell id="xAVLKOwbk4JyC8eKmy-N-60" style="edgeStyle=orthogonalEdgeStyle;rounded=0;orthogonalLoop=1;jettySize=auto;html=1;" edge="1" parent="WIyWlLk6GJQsqaUBKTNV-1" source="xAVLKOwbk4JyC8eKmy-N-35" target="xAVLKOwbk4JyC8eKmy-N-59">
          <mxGeometry relative="1" as="geometry" />
        </mxCell>
        <mxCell id="xAVLKOwbk4JyC8eKmy-N-35" value="Minting&lt;br&gt;&lt;br&gt;10 ЧЕЛ 60 ДЕНЕГ&lt;br&gt;&lt;br&gt;Увеличивает деньги на +0.1 в секу" style="rounded=1;whiteSpace=wrap;html=1;" vertex="1" parent="WIyWlLk6GJQsqaUBKTNV-1">
          <mxGeometry x="380" y="1150" width="120" height="110" as="geometry" />
        </mxCell>
        <mxCell id="xAVLKOwbk4JyC8eKmy-N-36" value="Казна&lt;br&gt;&lt;br&gt;10 ЧЕЛ 50 ДЕНЕГ&lt;br&gt;&lt;br&gt;Увеличивает максимум денег(+100)" style="rounded=1;whiteSpace=wrap;html=1;" vertex="1" parent="WIyWlLk6GJQsqaUBKTNV-1">
          <mxGeometry x="380" y="1270" width="120" height="110" as="geometry" />
        </mxCell>
        <mxCell id="xAVLKOwbk4JyC8eKmy-N-37" value="Sanitation&lt;br&gt;&lt;br&gt;10 ЧЕЛ 30 ДЕНЕГ&lt;br&gt;&lt;br&gt;Люди +0.5 в сек" style="rounded=1;whiteSpace=wrap;html=1;" vertex="1" parent="WIyWlLk6GJQsqaUBKTNV-1">
          <mxGeometry x="380" y="1410" width="120" height="110" as="geometry" />
        </mxCell>
        <mxCell id="xAVLKOwbk4JyC8eKmy-N-39" value="Tenements&lt;br&gt;&lt;br&gt;20 ЧЕЛ 75 ДЕНЕГ&lt;br&gt;&lt;br&gt;Увеличивает максимум людей (+)" style="rounded=1;whiteSpace=wrap;html=1;" vertex="1" parent="WIyWlLk6GJQsqaUBKTNV-1">
          <mxGeometry x="380" y="1560" width="120" height="110" as="geometry" />
        </mxCell>
        <mxCell id="xAVLKOwbk4JyC8eKmy-N-40" value="Opulence&lt;br&gt;&lt;br&gt;100 ДЕНЕГ&lt;br&gt;&lt;br&gt;Разблокирует указ JUBILEE" style="rounded=1;whiteSpace=wrap;html=1;" vertex="1" parent="WIyWlLk6GJQsqaUBKTNV-1">
          <mxGeometry x="380" y="1699" width="120" height="110" as="geometry" />
        </mxCell>
        <mxCell id="xAVLKOwbk4JyC8eKmy-N-49" value="Slavery&lt;br&gt;&lt;br&gt;10 АРМИ&lt;br&gt;&lt;br&gt;Разблокирует указ BUY SLAVES" style="rounded=1;whiteSpace=wrap;html=1;" vertex="1" parent="WIyWlLk6GJQsqaUBKTNV-1">
          <mxGeometry x="380" y="1840" width="120" height="110" as="geometry" />
        </mxCell>
        <mxCell id="xAVLKOwbk4JyC8eKmy-N-52" value="Harvest&lt;br&gt;&lt;br&gt;100 АРМИИ 100 ЗНАНИЙ&lt;br&gt;&lt;br&gt;Начинает харвеситить ???" style="rounded=1;whiteSpace=wrap;html=1;" vertex="1" parent="WIyWlLk6GJQsqaUBKTNV-1">
          <mxGeometry x="380" y="1970" width="120" height="110" as="geometry" />
        </mxCell>
        <mxCell id="xAVLKOwbk4JyC8eKmy-N-57" value="Writing&lt;br&gt;&lt;br&gt;10 ЧЕЛ 100 ДЕНЕГ 50 ЗЕРН&lt;br&gt;&lt;br&gt;Разблокирует указ Построить школу" style="rounded=1;whiteSpace=wrap;html=1;" vertex="1" parent="WIyWlLk6GJQsqaUBKTNV-1">
          <mxGeometry x="540" y="890" width="120" height="110" as="geometry" />
        </mxCell>
        <mxCell id="xAVLKOwbk4JyC8eKmy-N-59" value="Corporations&lt;br&gt;&lt;br&gt;10 ЧЕЛ 60 АРМИИ 100 ДЕНЕГ&lt;br&gt;&lt;br&gt;Увеличивает деньги на +0.2 в секу" style="rounded=1;whiteSpace=wrap;html=1;" vertex="1" parent="WIyWlLk6GJQsqaUBKTNV-1">
          <mxGeometry x="540" y="1150" width="120" height="110" as="geometry" />
        </mxCell>
      </root>
    </mxGraphModel>
  </diagram>
</mxfile>
